<?xml version="1.0" encoding="UTF-8" standalone="no"?>
<!-- Created with Inkscape (http://www.inkscape.org/) -->

<svg
   xmlns:dc="http://purl.org/dc/elements/1.1/"
   xmlns:cc="http://creativecommons.org/ns#"
   xmlns:rdf="http://www.w3.org/1999/02/22-rdf-syntax-ns#"
   xmlns:svg="http://www.w3.org/2000/svg"
   xmlns="http://www.w3.org/2000/svg"
   xmlns:sodipodi="http://sodipodi.sourceforge.net/DTD/sodipodi-0.dtd"
   xmlns:inkscape="http://www.inkscape.org/namespaces/inkscape"
   width="128"
   height="128"
   viewBox="0 0 33.866666 33.866667"
   version="1.1"
   id="svg8"
   inkscape:version="0.92.0 r15299"
   sodipodi:docname="icon.svg">
  <defs
     id="defs2" />
  <sodipodi:namedview
     id="base"
     pagecolor="#ffffff"
     bordercolor="#7d7d7d"
     borderopacity="0.49019608"
     inkscape:pageopacity="0.0"
     inkscape:pageshadow="2"
     inkscape:zoom="2"
     inkscape:cx="58.344216"
     inkscape:cy="82.648347"
     inkscape:document-units="px"
     inkscape:current-layer="svg8"
     showgrid="false"
     inkscape:snap-bbox="true"
     inkscape:bbox-paths="true"
     inkscape:bbox-nodes="true"
     inkscape:object-paths="true"
     units="px"
     borderlayer="true"
     inkscape:showpageshadow="false"
     inkscape:pagecheckerboard="false"
     showguides="true"
     inkscape:guide-bbox="true">
    <inkscape:grid
       type="xygrid"
       id="grid4499"
       spacingx="5.2916667"
       spacingy="5.2916667"
       empspacing="20"
       dotted="true" />
  </sodipodi:namedview>
  <metadata
     id="metadata5">
    <rdf:RDF>
      <cc:Work
         rdf:about="">
        <dc:format>image/svg+xml</dc:format>
        <dc:type
           rdf:resource="http://purl.org/dc/dcmitype/StillImage" />
        <dc:title />
        <cc:license
           rdf:resource="http://creativecommons.org/publicdomain/zero/1.0/" />
      </cc:Work>
      <cc:License
         rdf:about="http://creativecommons.org/publicdomain/zero/1.0/">
        <cc:permits
           rdf:resource="http://creativecommons.org/ns#Reproduction" />
        <cc:permits
           rdf:resource="http://creativecommons.org/ns#Distribution" />
        <cc:permits
           rdf:resource="http://creativecommons.org/ns#DerivativeWorks" />
      </cc:License>
    </rdf:RDF>
  </metadata>
  <rect
     style="opacity:1;fill:#fcfcfc;fill-opacity:1;stroke:none;stroke-width:0.26458332;stroke-linecap:square;stroke-linejoin:miter;stroke-miterlimit:4;stroke-dasharray:none;stroke-dashoffset:0;stroke-opacity:1"
     id="rect4507"
     width="33.866665"
     height="33.866669"
     x="0"
     y="4.5664214e-007" />
  <path
     style="opacity:1;fill:#2e3436;fill-opacity:1;stroke:none;stroke-width:1.58749998;stroke-linecap:round;stroke-linejoin:round;stroke-miterlimit:3.86369991;stroke-dasharray:none;stroke-opacity:1"
     d="m 9.2604166,5.2916671 -2.38125,2.38125 0.79375,0.7937498 1.5875,-1.5874998 1.5875004,1.5874998 1.5875,-1.5874998 1.5875,1.5874998 0.79375,-0.7937498 -2.38125,-2.38125 -1.5875,1.5875 z m -3.175,2.38125 -0.79375,0.7937498 2.38125,2.3812501 1.5875,-1.5875001 1.5875004,1.5875001 2.38125,-2.3812501 -0.79375,-0.7937498 -1.5875,1.5874998 -1.5875004,-1.5874998 -1.5875,1.5874998 z"
     id="path4733"
     inkscape:connector-curvature="0" />
  <path
     style="font-style:normal;font-variant:normal;font-weight:600;font-stretch:normal;font-size:4.4979167px;line-height:50%;font-family:'Segoe UI';-inkscape-font-specification:'Segoe UI Semi-Bold';font-variant-ligatures:normal;font-variant-caps:normal;font-variant-numeric:normal;font-feature-settings:normal;text-align:start;letter-spacing:0px;word-spacing:0px;writing-mode:lr-tb;text-anchor:start;fill:#000000;fill-opacity:1;stroke:none;stroke-width:0.99999994px;stroke-linecap:butt;stroke-linejoin:miter;stroke-opacity:1"
     d="M 48.580078 78.433594 C 46.792644 78.433594 45.31185 79.020181 44.138672 80.193359 C 42.971027 81.366535 42.386719 82.904946 42.386719 84.808594 C 42.386719 86.579426 42.9069 88.00944 43.947266 89.099609 C 44.987631 90.189779 46.371095 90.734375 48.097656 90.734375 C 49.431315 90.734375 50.546876 90.501953 51.443359 90.037109 L 51.443359 88.210938 C 50.618815 88.742188 49.644856 89.007812 48.521484 89.007812 C 47.304036 89.007813 46.321288 88.620443 45.574219 87.845703 C 44.827147 87.06543 44.453125 86.020508 44.453125 84.708984 C 44.453125 83.331054 44.851562 82.228841 45.648438 81.404297 C 46.450846 80.579753 47.497721 80.167969 48.787109 80.167969 C 49.755533 80.167969 50.640951 80.404949 51.443359 80.880859 L 51.443359 78.921875 C 50.685221 78.595377 49.731118 78.433594 48.580078 78.433594 z M 24.457031 78.632812 L 20 90.535156 L 22.158203 90.535156 L 23.1875 87.505859 L 27.869141 87.505859 L 28.939453 90.535156 L 31.105469 90.535156 L 26.681641 78.632812 L 24.457031 78.632812 z M 32.75 78.632812 L 32.75 90.535156 L 34.716797 90.535156 L 34.716797 85.705078 L 35.513672 85.705078 C 35.762695 85.705078 35.986328 85.734051 36.185547 85.794922 C 36.384766 85.855795 36.568359 85.953125 36.734375 86.085938 C 36.905924 86.21875 37.07194 86.391275 37.232422 86.601562 C 37.398437 86.806315 37.566732 87.054362 37.738281 87.347656 L 39.638672 90.535156 L 41.947266 90.535156 L 39.830078 87.189453 C 39.658523 86.929366 39.501296 86.703454 39.357422 86.509766 C 39.219068 86.310559 39.077468 86.133476 38.933594 85.978516 C 38.78971 85.823563 38.637041 85.673171 38.476562 85.529297 C 38.316071 85.379887 38.12792 85.244798 37.912109 85.123047 L 37.912109 85.089844 C 38.31608 84.984705 38.679035 84.836266 39 84.642578 C 39.326488 84.448892 39.60318 84.216471 39.830078 83.945312 C 40.062494 83.668621 40.239577 83.354493 40.361328 83.005859 C 40.488597 82.651692 40.552734 82.264323 40.552734 81.84375 C 40.552734 81.306966 40.453113 80.839844 40.253906 80.441406 C 40.060223 80.037435 39.788087 79.703125 39.439453 79.4375 C 39.090819 79.166342 38.681315 78.964844 38.210938 78.832031 C 37.740561 78.699219 37.226888 78.632812 36.667969 78.632812 L 32.75 78.632812 z M 53.701172 78.632812 L 53.701172 90.535156 L 55.675781 90.535156 L 55.675781 85.373047 L 61.279297 85.373047 L 61.279297 90.535156 L 63.263672 90.535156 L 63.263672 78.632812 L 61.279297 78.632812 L 61.279297 83.636719 L 55.675781 83.636719 L 55.675781 78.632812 L 53.701172 78.632812 z M 66.210938 78.632812 L 66.210938 90.535156 L 68.244141 90.535156 L 68.244141 78.632812 L 66.210938 78.632812 z M 69.8125 78.632812 L 74.013672 90.535156 L 76.220703 90.535156 L 80.496094 78.632812 L 78.404297 78.632812 L 75.400391 87.646484 C 75.278639 88.011718 75.196931 88.352539 75.158203 88.667969 L 75.125 88.667969 C 75.075211 88.286133 75.004241 87.951823 74.910156 87.664062 L 71.970703 78.632812 L 69.8125 78.632812 z M 82.089844 78.632812 L 82.089844 90.535156 L 88.771484 90.535156 L 88.771484 88.867188 L 84.064453 88.867188 L 84.064453 85.347656 L 88.158203 85.347656 L 88.158203 83.679688 L 84.064453 83.679688 L 84.064453 80.308594 L 88.505859 80.308594 L 88.505859 78.632812 L 82.089844 78.632812 z M 34.716797 80.234375 L 36.376953 80.234375 C 37.052083 80.234375 37.569987 80.393881 37.929688 80.714844 C 38.289388 81.035809 38.46875 81.482749 38.46875 82.052734 C 38.46875 82.368166 38.415693 82.651694 38.310547 82.90625 C 38.205398 83.160806 38.059239 83.377604 37.871094 83.554688 C 37.682943 83.731763 37.45931 83.866852 37.199219 83.960938 C 36.944662 84.055023 36.66569 84.101562 36.361328 84.101562 L 34.716797 84.101562 L 34.716797 80.234375 z M 25.503906 80.400391 L 25.537109 80.400391 C 25.592449 80.743501 25.643555 80.991549 25.693359 81.146484 L 27.345703 85.894531 L 23.701172 85.894531 L 25.337891 81.146484 C 25.398764 80.963868 25.454102 80.71582 25.503906 80.400391 z M 20.158203 96.097656 L 20.158203 97.773438 L 23.568359 97.773438 L 23.568359 108 L 25.544922 108 L 25.544922 97.773438 L 28.964844 97.773438 L 28.964844 96.097656 L 20.158203 96.097656 z M 30.716797 96.097656 L 30.716797 108 L 32.75 108 L 32.75 96.097656 L 30.716797 96.097656 z M 34.501953 96.097656 L 34.501953 97.773438 L 37.912109 97.773438 L 37.912109 108 L 39.888672 108 L 39.888672 97.773438 L 43.308594 97.773438 L 43.308594 96.097656 L 34.501953 96.097656 z M 45.068359 96.097656 L 45.068359 108 L 51.658203 108 L 51.658203 106.33203 L 47.042969 106.33203 L 47.042969 96.097656 L 45.068359 96.097656 z M 53.369141 96.097656 L 53.369141 108 L 60.050781 108 L 60.050781 106.33203 L 55.34375 106.33203 L 55.34375 102.8125 L 59.4375 102.8125 L 59.4375 101.14453 L 55.34375 101.14453 L 55.34375 97.773438 L 59.785156 97.773438 L 59.785156 96.097656 L 53.369141 96.097656 z "
     transform="scale(0.26458333)"
     id="path4507" />
</svg>
